<svg width="31" height="40" viewBox="0 0 31 40" fill="none" xmlns="http://www.w3.org/2000/svg">
<path d="M30.8378 17.4698C30.0873 12.5256 27.5458 8.02345 23.6903 4.80808C19.8347 1.59271 14.9301 -0.114796 9.89687 0.00599704H4.82943C2.11114 0.00599704 0.634533 1.50575 0.634533 3.33878C0.634533 4.22268 0.988103 5.07039 1.61746 5.69541C2.24682 6.32042 3.10041 6.67156 3.99045 6.67156H9.99755C13.4462 6.58014 16.8053 7.76931 19.4181 10.0066C22.0308 12.2439 23.7095 15.3685 24.126 18.7695C24.2992 20.621 24.0805 22.488 23.4839 24.2506C22.8873 26.0131 21.926 27.6322 20.6618 29.0038C19.3975 30.3754 17.8584 31.4692 16.1432 32.215C14.428 32.9607 12.5746 33.3418 10.7023 33.3338H3.99045C3.10041 33.3338 2.24682 33.6849 1.61746 34.3099C0.988103 34.935 0.634533 35.7827 0.634533 36.6666C0.634533 37.5505 0.988103 38.3982 1.61746 39.0232C2.24682 39.6482 3.10041 39.9994 3.99045 39.9994H10.7023C13.5755 40.0223 16.4204 39.4344 19.0459 38.275C21.6713 37.1156 24.0165 35.4115 25.9239 33.2774C27.8312 31.1433 29.2566 28.6285 30.1041 25.9019C30.9517 23.1754 31.2019 20.3003 30.8378 17.4698Z" fill="#02B589"/>
</svg>
